<!--?xml version="1.0" standalone="no"?-->
              <svg id="sw-js-blob-svg" viewBox="0 0 100 100" xmlns="http://www.w3.org/2000/svg" version="1.1">
                    <defs> 
                        <linearGradient id="sw-gradient" x1="0" x2="1" y1="1" y2="0">
                            <stop id="stop1" stop-color="rgba(48, 72, 88, 1)" offset="0%"></stop>
                            <stop id="stop2" stop-color="rgba(113, 170, 206, 1)" offset="100%"></stop>
                        </linearGradient>
                    </defs>
                <path fill="url(#sw-gradient)" d="M19.2,-32.1C24,-26.7,26.7,-20,31.1,-13.3C35.6,-6.6,41.8,0.2,41.2,6.1C40.6,12,33.1,17.1,26.9,22.1C20.7,27.1,15.8,32,10,33.5C4.2,35.1,-2.5,33.1,-7.8,30C-13.2,26.9,-17.2,22.6,-22.7,18.5C-28.3,14.3,-35.4,10.2,-37.1,4.7C-38.8,-0.7,-35.1,-7.5,-31.2,-13.5C-27.3,-19.4,-23.2,-24.6,-18,-29.8C-12.7,-35.1,-6.4,-40.5,0.4,-41.1C7.1,-41.7,14.3,-37.5,19.2,-32.1Z" width="100%" height="100%" transform="translate(50 50)" stroke-width="0" style="transition: all 0.3s ease 0s;"></path>
              </svg>