
<svg id="sw-js-blob-svg" viewBox="0 0 100 100" xmlns="http://www.w3.org/2000/svg" version="1.1">
      <defs> 
          <linearGradient id="sw-gradient" x1="0" x2="1" y1="1" y2="0">
              <stop id="stop1" stop-color="rgba(25.203, 72.28, 103.665, 1)" offset="0%" data-darkreader-inline-stopcolor="" style="--darkreader-inline-stopcolor: #9c2900;"></stop>
              <stop id="stop2" stop-color="rgba(125.11, 178.948, 212.951, 1)" offset="100%" data-darkreader-inline-stopcolor="" style="--darkreader-inline-stopcolor: #4d555a;"></stop>
          </linearGradient>
      </defs>
  <path fill="url(#sw-gradient)" d="M20.8,-27C27.9,-23.5,35.3,-18.7,39.6,-11.5C43.8,-4.2,45,5.4,41.4,12.6C37.9,19.8,29.6,24.5,21.9,28.2C14.2,31.8,7.1,34.3,-1.2,35.9C-9.5,37.5,-18.9,38.3,-25.6,34.4C-32.3,30.4,-36.2,21.7,-36.8,13.5C-37.4,5.2,-34.6,-2.6,-32.6,-11.1C-30.5,-19.7,-29.2,-29,-23.9,-33C-18.6,-37.1,-9.3,-35.8,-1.2,-34.2C6.9,-32.5,13.7,-30.4,20.8,-27Z" width="100%" height="100%" transform="translate(50 50)" stroke-width="0" style="transition: all 0.3s ease 0s;" stroke="url(#sw-gradient)"></path>
</svg>