<!--?xml version="1.0" standalone="no"?-->
              <svg id="sw-js-blob-svg" viewBox="0 0 100 100" xmlns="http://www.w3.org/2000/svg" version="1.1">
                    <defs> 
                        <linearGradient id="sw-gradient" x1="0" x2="1" y1="1" y2="0">
                            <stop id="stop1" stop-color="rgba(48, 72, 88, 1)" offset="0%"></stop>
                            <stop id="stop2" stop-color="rgba(113, 170, 206, 1)" offset="100%"></stop>
                        </linearGradient>
                    </defs>
                <path fill="url(#sw-gradient)" d="M21.6,-27.8C27.5,-20.7,31.4,-13.5,34.2,-5C36.9,3.5,38.4,13.2,34.7,20.5C31,27.7,22.3,32.4,13.5,34.4C4.7,36.5,-4.1,36,-12.9,33.6C-21.7,31.2,-30.5,27,-33.2,20.2C-35.9,13.5,-32.4,4.2,-30.7,-5.4C-29.1,-15.1,-29.2,-25,-24.4,-32.3C-19.6,-39.6,-9.8,-44.2,-1,-43C7.8,-41.8,15.7,-34.9,21.6,-27.8Z" width="100%" height="100%" transform="translate(50 50)" stroke-width="0" style="transition: all 0.3s ease 0s;"></path>
              </svg>