<!--?xml version="1.0" standalone="no"?-->
              <svg id="sw-js-blob-svg" viewBox="0 0 100 100" xmlns="http://www.w3.org/2000/svg" version="1.1">
                    <defs> 
                        <linearGradient id="sw-gradient" x1="0" x2="1" y1="1" y2="0">
                            <stop id="stop1" stop-color="rgba(48, 72, 88, 1)" offset="0%"></stop>
                            <stop id="stop2" stop-color="rgba(113, 170, 206, 1)" offset="100%"></stop>
                        </linearGradient>
                    </defs>
                <path fill="url(#sw-gradient)" d="M16.8,-27.6C21.2,-23.3,23.9,-17.7,27.3,-12C30.8,-6.2,35.1,-0.3,34.8,5.4C34.6,11,29.9,16.4,24.8,20.7C19.8,24.9,14.5,28,8.3,31.2C2.1,34.3,-4.9,37.5,-10.5,35.8C-16.1,34.2,-20.2,27.6,-24.6,21.7C-28.9,15.9,-33.6,10.7,-36.7,3.9C-39.7,-2.8,-41.2,-11.2,-38.6,-17.9C-36,-24.6,-29.2,-29.7,-22,-32.8C-14.9,-35.9,-7.5,-37.1,-0.6,-36.1C6.2,-35.1,12.4,-32,16.8,-27.6Z" width="100%" height="100%" transform="translate(50 50)" stroke-width="0" style="transition: all 0.3s ease 0s;"></path>
              </svg>